<svg width="147" height="45" viewBox="0 0 147 45" fill="none" xmlns="http://www.w3.org/2000/svg">
<rect width="147" height="45" fill="#1E1E1E"/>
<g clip-path="url(#clip0_0_1)">
<rect width="1920" height="1024" transform="translate(-192 -55)" fill="#F8F3E8"/>
<rect x="-192" y="-55" width="571" height="1025" fill="#BD7637"/>
<path d="M0.46875 3.15625C0.46875 2.34375 0.760417 1.64583 1.34375 1.0625C1.92708 0.479167 2.625 0.1875 3.4375 0.1875H28.8438C35.0729 0.1875 39.6667 1.97917 42.625 5.5625C44.2708 7.54167 45.0938 10.0729 45.0938 13.1562C45.0938 16.2188 43.6875 18.8958 40.875 21.1875C44.875 23.3333 46.875 26.6667 46.875 31.1875C46.875 35.7083 45.2708 39.1458 42.0625 41.5C38.875 43.8333 34.9583 45 30.3125 45H3.4375C2.625 45 1.92708 44.7188 1.34375 44.1562C0.760417 43.5729 0.46875 42.875 0.46875 42.0625V3.15625ZM12.25 36.5625H30.125C31.7292 36.5625 32.9583 36.0833 33.8125 35.125C34.6667 34.1667 35.0938 32.8542 35.0938 31.1875C35.0938 29.5208 34.6667 28.2083 33.8125 27.25C32.9583 26.2917 31.7292 25.8125 30.125 25.8125H12.25V36.5625ZM12.25 17.5938H28.9688C30.2812 17.5938 31.3333 17.2083 32.125 16.4375C32.9167 15.6458 33.3125 14.5521 33.3125 13.1562C33.3125 11.7396 32.9167 10.6354 32.125 9.84375C31.3333 9.05208 30.2812 8.65625 28.9688 8.65625H12.25V17.5938ZM99.6562 43.625C99.6562 44.5417 99.1146 45 98.0312 45H90.875C90.0625 45 89.1875 44.7188 88.25 44.1562C87.3125 43.5729 86.5833 42.875 86.0625 42.0625L80.5625 33.3438C79.25 31.2188 77.9271 29.625 76.5938 28.5625C75.2604 27.4792 73.6562 26.9375 71.7812 26.9375H65.0625V42.125C65.0625 42.9375 64.7708 43.625 64.1875 44.1875C63.625 44.7292 62.9375 45 62.125 45H56.25C55.4375 45 54.7396 44.7083 54.1562 44.125C53.5729 43.5208 53.2812 42.8125 53.2812 42V3.15625C53.2812 2.34375 53.5729 1.63542 54.1562 1.03125C54.7396 0.427083 55.4375 0.125 56.25 0.125H62.125C62.9375 0.125 63.625 0.427083 64.1875 1.03125C64.7708 1.63542 65.0625 2.34375 65.0625 3.15625V18.125H71.7812C73.6146 18.125 75.2188 17.625 76.5938 16.625C77.9896 15.625 79.3125 14.0104 80.5625 11.7812L85.4062 3.15625C86.5104 1.15625 88.0104 0.145833 89.9062 0.125H97.125C98.125 0.125 98.625 0.5625 98.625 1.4375C98.625 1.91667 98.4479 2.48958 98.0938 3.15625L91.3125 15.4375C90.3333 17.2292 89.2292 18.7083 88 19.875C86.7917 21.0417 85.2083 21.8646 83.25 22.3438C84.625 22.6354 86.0312 23.5 87.4688 24.9375C88.9271 26.375 90.2083 27.9375 91.3125 29.625L99.125 42.0625C99.4792 42.6667 99.6562 43.1875 99.6562 43.625ZM104.156 42V3.09375C104.156 2.28125 104.448 1.59375 105.031 1.03125C105.615 0.46875 106.312 0.1875 107.125 0.1875H143.156C143.969 0.1875 144.656 0.479167 145.219 1.0625C145.802 1.64583 146.094 2.34375 146.094 3.15625V6.09375C146.094 6.90625 145.802 7.60417 145.219 8.1875C144.656 8.75 143.969 9.03125 143.156 9.03125H115.938V18.125H139.375C140.188 18.125 140.875 18.4167 141.438 19C142.021 19.5625 142.312 20.25 142.312 21.0625V24C142.312 24.8125 142.021 25.5104 141.438 26.0938C140.875 26.6562 140.188 26.9375 139.375 26.9375H115.938V36.1562H143.094C143.885 36.1562 144.562 36.4375 145.125 37C145.688 37.5625 145.969 38.25 145.969 39.0625V42.0625C145.969 42.875 145.677 43.5729 145.094 44.1562C144.51 44.7188 143.812 45 143 45H107.125C106.312 45 105.615 44.7188 105.031 44.1562C104.448 43.5729 104.156 42.8542 104.156 42Z" fill="white"/>
</g>
<defs>
<clipPath id="clip0_0_1">
<rect width="1920" height="1024" fill="white" transform="translate(-192 -55)"/>
</clipPath>
</defs>
</svg>
